{"title":"Run.all.Night.2014.1080p.WEB-DL.DD5.1.H264-RARBG","uid":11982039,"size":4127930712,"categoryP":"video","categoryS":"hd___movies","magnet":"?xt=urn:btih:34c321b73401b439314186f11a5deaa2e20c13f1&amp;dn=Run.all.Night.2014.1080p.WEB-DL.DD5.1.H264-RARBG&amp;tr=udp%3A%2F%2Ftracker.openbittorrent.com%3A80&amp;tr=udp%3A%2F%2Fopen.demonii.com%3A1337&amp;tr=udp%3A%2F%2Ftracker.coppersurfer.tk%3A6969&amp;tr=udp%3A%2F%2Fexodus.desync.com%3A6969","seeders":11,"leechers":3,"uploader":"vickey1992","files":5,"time":1433245614,"description":"Video\nID                                       : 1\nFormat                                   : AVC\nFormat/Info                              : Advanced Video Codec\nFormat profile                           : High@L4\nFormat settings, CABAC                   : Yes\nFormat settings, ReFrames                : 5 frames\nCodec ID                                 : V_MPEG4/ISO/AVC\nDuration                                 : 1h 54mn\nBit rate                                 : 4 334 Kbps\nWidth                                    : 1 912 pixels\nHeight                                   : 792 pixels\nDisplay aspect ratio                     : 2.40:1\nFrame rate mode                          : Constant\nFrame rate                               : 23.976 fps\nColor space                              : YUV\nChroma subsampling                       : 4:2:0\nBit depth                                : 8 bits\nScan type                                : Progressive\nBits/(Pixel*Frame)                       : 0.119\nStream size                              : 3.46 GiB (90%)\nTitle                                    : Run.all.Night.2014.1080p.WEB-DL.DD5.1.H264-RARBG\nLanguage                                 : English\nDefault                                  : Yes\nForced                                   : No\nColor range                              : Limited\nColor primaries                          : BT.709\nTransfer characteristics                 : BT.709\nMatrix coefficients                      : BT.709\n\nAudio\nID                                       : 2\nFormat                                   : AC-3\nFormat/Info                              : Audio Coding 3\nMode extension                           : CM (complete main)\nFormat settings, Endianness              : Big\nCodec ID                                 : A_AC3\nDuration                                 : 1h 54mn\nBit rate mode                            : Constant\nBit rate                                 : 384 Kbps\nChannel(s)                               : 6 channels\nChannel positions                        : Front: L C R, Side: L R, LFE\nSampling rate                            : 48.0 KHz\nBit depth                                : 16 bits\nCompression mode                         : Lossy\nStream size                              : 314 MiB (8%)\nTitle                                    : Run.all.Night.2014.1080p.WEB-DL.DD5.1.H264-RARBG\nLanguage                                 : English\nDefault                                  : Yes\nForced                                   : No\n\nText\nID                                       : 3\nFormat                                   : UTF-8\nCodec ID                                 : S_TEXT/UTF8\nCodec ID/Info                            : UTF-8 Plain Text\nLanguage                                 : English\nDefault                                  : Yes\nForced                                   : No\n\nMenu\n00:00:00.000                             : en:1\n00:09:02.000                             : en:2\n00:20:31.000                             : en:3\n00:29:23.000                             : en:4\n00:41:16.000                             : en:5\n00:50:29.000                             : en:6\n01:01:35.000                             : en:7\n01:10:56.000                             : en:8\n01:19:51.000                             : en:9\n01:34:13.000                             : en:10\n01:39:08.000                             : en:11\n01:48:38.000                             : en:12","torrent":{"xt":"urn:btih:34c321b73401b439314186f11a5deaa2e20c13f1","amp;dn":"Run.all.Night.2014.1080p.WEB-DL.DD5.1.H264-RARBG","amp;tr":["udp%3A%2F%2Ftracker.openbittorrent.com%3A80","udp%3A%2F%2Fopen.demonii.com%3A1337","udp%3A%2F%2Ftracker.coppersurfer.tk%3A6969","udp%3A%2F%2Fexodus.desync.com%3A6969"],"infoHash":"34c321b73401b439314186f11a5deaa2e20c13f1","infoHashBuffer":{"type":"Buffer","data":[52,195,33,183,52,1,180,57,49,65,134,241,26,93,234,162,226,12,19,241]},"announce":[],"urlList":[]}}